<svg width="24" height="28" viewBox="0 0 24 28" fill="none" xmlns="http://www.w3.org/2000/svg">
<path d="M21.4286 12H20.1429V8.14286C20.1429 3.65357 16.4893 0 12 0C7.51071 0 3.85714 3.65357 3.85714 8.14286V12H2.57143C1.15179 12 0 13.1518 0 14.5714V24.8571C0 26.2768 1.15179 27.4286 2.57143 27.4286H21.4286C22.8482 27.4286 24 26.2768 24 24.8571V14.5714C24 13.1518 22.8482 12 21.4286 12ZM15.8571 12H8.14286V8.14286C8.14286 6.01607 9.87321 4.28571 12 4.28571C14.1268 4.28571 15.8571 6.01607 15.8571 8.14286V12Z" fill="black"/>
</svg>
