<svg width="29" height="22" viewBox="0 0 29 22" fill="none" xmlns="http://www.w3.org/2000/svg">
<path d="M26.2812 0H2.71875C1.21721 0 0 1.21721 0 2.71875V19.0312C0 20.5328 1.21721 21.75 2.71875 21.75H26.2812C27.7828 21.75 29 20.5328 29 19.0312V2.71875C29 1.21721 27.7828 0 26.2812 0ZM26.2812 2.71875V5.02997C25.0113 6.06417 22.9866 7.67231 18.6582 11.0616C17.7043 11.8119 15.8147 13.6145 14.5 13.5935C13.1855 13.6148 11.2953 11.8117 10.3418 11.0616C6.0141 7.67282 3.98892 6.06434 2.71875 5.02997V2.71875H26.2812ZM2.71875 19.0312V8.51864C4.01661 9.55238 5.85715 11.003 8.6625 13.1998C9.9005 14.1743 12.0685 16.3255 14.5 16.3124C16.9195 16.3255 19.0601 14.2055 20.337 13.2002C23.1423 11.0035 24.9833 9.5525 26.2812 8.51869V19.0312H2.71875Z" fill="black"/>
</svg>
